<svg id="레이어_1" data-name="레이어 1" xmlns="http://www.w3.org/2000/svg" xmlns:xlink="http://www.w3.org/1999/xlink" viewBox="0 0 50 39.21">
  <defs>
    <style>
      .cls-1 {
        fill: url(#GradientFill_160);
      }

      .cls-2 {
        fill: #fff;
      }

      .cls-3 {
        fill: url(#GradientFill_585);
      }

      .cls-4 {
        fill: url(#GradientFill_585-2);
      }
    </style>
    <linearGradient id="GradientFill_160" data-name="GradientFill 160" x1="4.89" y1="19.6" x2="45.07" y2="19.6" gradientUnits="userSpaceOnUse">
      <stop offset="0" stop-color="#e84f55"/>
      <stop offset="1" stop-color="#d53c47"/>
    </linearGradient>
    <linearGradient id="GradientFill_585" data-name="GradientFill 585" y1="3.4" x2="6.86" y2="3.4" gradientUnits="userSpaceOnUse">
      <stop offset="0" stop-color="#d13b43"/>
      <stop offset="0.29" stop-color="#cb353e"/>
      <stop offset="0.69" stop-color="#b9242f"/>
      <stop offset="1" stop-color="#a7121f"/>
    </linearGradient>
    <linearGradient id="GradientFill_585-2" x1="50.11" y1="7.97" x2="45.07" y2="4.68" xlink:href="#GradientFill_585"/>
  </defs>
  <title>best icon(50x40)</title>
  <g>
    <g>
      <polygon class="cls-1" points="43.1 0 43.1 28.16 25.02 39.21 6.86 28.16 6.86 0 43.1 0"/>
      <polygon class="cls-2" points="24.99 36.29 9.6 26.91 9.6 0 10.68 0 10.68 26.31 24.99 35.04 39.31 26.31 39.31 0 40.38 0 40.38 26.91 24.99 36.29"/>
      <path class="cls-2" d="M44.89,1.75,43.1,0V6.79h2V1.93Zm-40,.18V6.79h2V0L5.08,1.75Z"/>
    </g>
    <polygon class="cls-3" points="6.86 0 6.86 6.79 0 6.79 4.9 1.93 5.08 1.75 6.86 0"/>
    <polygon class="cls-4" points="50 6.79 43.1 6.79 43.1 0 44.89 1.75 45.07 1.93 50 6.79"/>
    <g>
      <path class="cls-2" d="M14.07,13.11h2.65c1.44,0,2.15.55,2.15,1.67V15a1.56,1.56,0,0,1-.05.44,1,1,0,0,1-.18.4,1.15,1.15,0,0,1-.33.33,1.66,1.66,0,0,1-.52.21,1.74,1.74,0,0,1,1,.47,1.43,1.43,0,0,1,.39,1.08v.24a1.7,1.7,0,0,1-.53,1.32,2.4,2.4,0,0,1-1.64.48H14.07Zm1.2,1v1.78h1.52a1.41,1.41,0,0,0,.47-.11.59.59,0,0,0,.28-.26,1,1,0,0,0,.1-.5v-.17a.57.57,0,0,0-.33-.58,3,3,0,0,0-1.11-.15Zm0,4.83h1.1a6.81,6.81,0,0,0,.7,0,1.3,1.3,0,0,0,.49-.13.66.66,0,0,0,.29-.28A1,1,0,0,0,18,18V17.8a.93.93,0,0,0-.09-.44.7.7,0,0,0-.3-.29,1.73,1.73,0,0,0-.55-.15,6.3,6.3,0,0,0-.82,0h-.92Z"/>
      <path class="cls-2" d="M24.73,13.11v1H21.54V16h3v1h-3v2H24.8v1H20.33V13.11Z"/>
      <path class="cls-2" d="M28.3,19a1.49,1.49,0,0,0,.95-.23.69.69,0,0,0,.29-.58V18a.72.72,0,0,0-.3-.63,3.05,3.05,0,0,0-.9-.33l-.86-.2a2.76,2.76,0,0,1-.77-.31,1.73,1.73,0,0,1-.57-.57,1.83,1.83,0,0,1-.21-.95v-.12a1.91,1.91,0,0,1,.12-.65,1.64,1.64,0,0,1,.41-.62,2.14,2.14,0,0,1,.75-.47A3.23,3.23,0,0,1,28.37,13a4.86,4.86,0,0,1,1.09.12,3.25,3.25,0,0,1,1,.45l-.57.94a2.58,2.58,0,0,0-.77-.35,3.79,3.79,0,0,0-.77-.08,1.84,1.84,0,0,0-.56.08,1.19,1.19,0,0,0-.39.2.83.83,0,0,0-.24.26.62.62,0,0,0-.07.29V15a.62.62,0,0,0,.12.4.92.92,0,0,0,.32.25,1.77,1.77,0,0,0,.46.16l.58.13a4.79,4.79,0,0,1,1,.33,2.29,2.29,0,0,1,.67.44,1.46,1.46,0,0,1,.36.54,2,2,0,0,1,.11.65V18a2,2,0,0,1-.21,1,1.62,1.62,0,0,1-.55.61,2.19,2.19,0,0,1-.8.33,4.32,4.32,0,0,1-.95.1,4.67,4.67,0,0,1-1.4-.22,5.06,5.06,0,0,1-.58-.25,3.48,3.48,0,0,1-.47-.31l.59-1a2.82,2.82,0,0,0,.81.46A2.73,2.73,0,0,0,28.3,19Z"/>
      <path class="cls-2" d="M36.57,13.11v1h-2v5.81H33.36V14.13h-2v-1Z"/>
    </g>
  </g>
</svg>
